<svg width="184" height="36" viewBox="0 0 184 36" fill="none" xmlns="http://www.w3.org/2000/svg">
<path d="M58.176 31.464C58.016 31.464 57.912 31.432 57.864 31.368C57.816 31.32 57.792 31.264 57.792 31.2C58.08 31.152 58.36 30.936 58.632 30.552C58.904 30.184 59.04 29.752 59.04 29.256C59.04 28.472 58.784 27.712 58.272 26.976C57.76 26.256 57.04 25.592 56.112 24.984C55.184 24.376 54.096 23.856 52.848 23.424C51.616 22.976 50.264 22.648 48.792 22.44C48.248 23.208 47.632 23.912 46.944 24.552C46.272 25.208 45.52 25.728 44.688 26.112C43.872 26.512 42.984 26.712 42.024 26.712C41.016 26.712 40.248 26.48 39.72 26.016C39.192 25.552 38.928 25.016 38.928 24.408C38.928 23.848 39.152 23.288 39.6 22.728C40.064 22.152 40.76 21.68 41.688 21.312C42.632 20.928 43.824 20.736 45.264 20.736C46.368 20.736 47.488 20.832 48.624 21.024C49.024 20.32 49.384 19.616 49.704 18.912C50.024 18.208 50.304 17.544 50.544 16.92C48.96 16.856 47.712 16.616 46.8 16.2C45.888 15.768 45.24 15.232 44.856 14.592C44.472 13.952 44.28 13.296 44.28 12.624C44.28 11.776 44.536 10.976 45.048 10.224C45.56 9.456 46.256 8.832 47.136 8.352C48.016 7.872 49 7.632 50.088 7.632C50.216 7.632 50.296 7.68 50.328 7.776C50.36 7.872 50.376 7.952 50.376 8.016C49.768 8.016 49.176 8.152 48.6 8.424C48.04 8.696 47.536 9.064 47.088 9.528C46.64 9.976 46.28 10.48 46.008 11.04C45.752 11.6 45.624 12.176 45.624 12.768C45.624 13.344 45.776 13.912 46.08 14.472C46.384 15.016 46.904 15.472 47.64 15.84C48.376 16.208 49.408 16.408 50.736 16.44C50.88 16.072 51 15.736 51.096 15.432C51.208 15.112 51.304 14.84 51.384 14.616C51.768 13.464 52.176 12.32 52.608 11.184C53.056 10.048 53.56 9.016 54.12 8.088C54.696 7.16 55.376 6.416 56.16 5.856C56.944 5.296 57.88 5.016 58.968 5.016C59.672 5.016 60.216 5.216 60.6 5.616C61 6.016 61.2 6.568 61.2 7.272C61.2 7.96 61.04 8.72 60.72 9.552C60.4 10.368 59.952 11.184 59.376 12C58.8 12.816 58.12 13.576 57.336 14.28C56.552 14.984 55.696 15.568 54.768 16.032C53.84 16.496 52.864 16.784 51.84 16.896C51.6 17.408 51.296 18.056 50.928 18.84C50.56 19.608 50.12 20.4 49.608 21.216C51 21.536 52.312 21.968 53.544 22.512C54.792 23.056 55.888 23.672 56.832 24.36C57.792 25.064 58.544 25.808 59.088 26.592C59.632 27.392 59.904 28.184 59.904 28.968C59.904 29.672 59.728 30.264 59.376 30.744C59.024 31.224 58.624 31.464 58.176 31.464ZM58.968 6.24C58.28 6.24 57.632 6.544 57.024 7.152C56.416 7.744 55.832 8.536 55.272 9.528C54.728 10.504 54.192 11.592 53.664 12.792C53.136 13.992 52.608 15.184 52.08 16.368C53.024 16.24 53.904 15.952 54.72 15.504C55.536 15.056 56.28 14.512 56.952 13.872C57.624 13.216 58.2 12.52 58.68 11.784C59.16 11.048 59.528 10.328 59.784 9.624C60.04 8.904 60.168 8.264 60.168 7.704C60.168 7.256 60.072 6.904 59.88 6.648C59.688 6.376 59.384 6.24 58.968 6.24ZM39.528 24.744C39.528 25.144 39.744 25.488 40.176 25.776C40.608 26.08 41.224 26.232 42.024 26.232C43.208 26.232 44.28 25.848 45.24 25.08C46.2 24.328 47.056 23.408 47.808 22.32C46.96 22.24 46.112 22.2 45.264 22.2C43.952 22.2 42.872 22.336 42.024 22.608C41.176 22.864 40.544 23.192 40.128 23.592C39.728 23.976 39.528 24.36 39.528 24.744ZM59.5168 24.096C58.9248 24.096 58.3888 23.904 57.9088 23.52C57.4448 23.136 57.2128 22.552 57.2128 21.768C57.2128 21.112 57.3568 20.416 57.6448 19.68C57.9488 18.944 58.3408 18.256 58.8208 17.616C59.3168 16.96 59.8608 16.432 60.4528 16.032C61.0608 15.616 61.6688 15.408 62.2768 15.408C62.5808 15.408 62.8768 15.496 63.1648 15.672C63.4528 15.848 63.5968 16.152 63.5968 16.584C63.5968 16.984 63.4448 17.424 63.1408 17.904C62.8368 18.384 62.4048 18.832 61.8448 19.248C61.6048 19.424 61.3008 19.592 60.9328 19.752C60.5648 19.912 60.1968 20.048 59.8288 20.16C59.4608 20.256 59.1568 20.304 58.9168 20.304C58.8368 20.496 58.7568 20.752 58.6768 21.072C58.6128 21.392 58.5808 21.72 58.5808 22.056C58.5808 22.456 58.6608 22.816 58.8208 23.136C58.9808 23.456 59.2768 23.616 59.7088 23.616C60.2368 23.616 60.7248 23.464 61.1728 23.16C61.6368 22.856 62.0448 22.472 62.3968 22.008C62.7648 21.544 63.0768 21.072 63.3328 20.592C63.5888 20.112 63.7888 19.704 63.9328 19.368C64.1248 19.368 64.2208 19.44 64.2208 19.584C64.0128 20.032 63.7728 20.52 63.5008 21.048C63.2448 21.576 62.9328 22.072 62.5648 22.536C62.2128 22.984 61.7808 23.36 61.2688 23.664C60.7728 23.952 60.1888 24.096 59.5168 24.096ZM59.0848 19.872C59.3088 19.872 59.6848 19.792 60.2128 19.632C60.7408 19.456 61.2208 19.184 61.6528 18.816C62.0688 18.448 62.3888 18.048 62.6128 17.616C62.8368 17.168 62.9488 16.792 62.9488 16.488C62.9488 16.136 62.8208 15.96 62.5648 15.96C62.3728 15.96 62.1088 16.088 61.7728 16.344C61.4368 16.6 61.0208 17.032 60.5248 17.64C60.2208 18.024 59.9328 18.44 59.6608 18.888C59.3888 19.336 59.1968 19.664 59.0848 19.872ZM64.8414 24C64.2494 24 63.8334 23.832 63.5934 23.496C63.3534 23.144 63.2334 22.744 63.2334 22.296C63.2334 22.056 63.2574 21.816 63.3054 21.576C63.3694 21.32 63.4414 21.088 63.5214 20.88L65.1294 16.776C65.1774 16.648 65.2014 16.536 65.2014 16.44C65.2014 16.28 65.1614 16.144 65.0814 16.032C65.0014 15.904 64.9454 15.816 64.9134 15.768L66.2334 15.72C66.4734 15.704 66.6414 15.736 66.7374 15.816C66.8494 15.88 66.9054 15.96 66.9054 16.056C66.9054 16.152 66.8494 16.328 66.7374 16.584C66.5774 16.968 66.3614 17.448 66.0894 18.024C65.8174 18.6 65.5454 19.192 65.2734 19.8C65.0174 20.408 64.7934 20.976 64.6014 21.504C64.4254 22.032 64.3374 22.44 64.3374 22.728C64.3374 22.936 64.3854 23.112 64.4814 23.256C64.5934 23.4 64.7774 23.472 65.0334 23.472C65.3694 23.472 65.6974 23.344 66.0174 23.088C66.3534 22.816 66.6654 22.472 66.9534 22.056C67.2414 21.64 67.5054 21.192 67.7454 20.712C68.0014 20.232 68.2174 19.784 68.3934 19.368C68.5854 19.368 68.6814 19.44 68.6814 19.584C68.5214 19.984 68.3134 20.44 68.0574 20.952C67.8014 21.464 67.5054 21.952 67.1694 22.416C66.8494 22.864 66.4894 23.24 66.0894 23.544C65.7054 23.848 65.2894 24 64.8414 24ZM66.9774 14.232C66.7694 14.232 66.5854 14.152 66.4254 13.992C66.2814 13.832 66.2094 13.64 66.2094 13.416C66.2094 13.144 66.3214 12.904 66.5454 12.696C66.7694 12.472 67.0174 12.36 67.2894 12.36C67.5134 12.36 67.7054 12.432 67.8654 12.576C68.0254 12.72 68.1054 12.904 68.1054 13.128C68.1054 13.416 67.9934 13.672 67.7694 13.896C67.5454 14.12 67.2814 14.232 66.9774 14.232ZM69.7562 24.072C69.1642 24.072 68.7242 23.896 68.4362 23.544C68.1642 23.176 68.0282 22.744 68.0282 22.248C68.0282 21.736 68.1002 21.208 68.2442 20.664C68.3882 20.12 68.5162 19.664 68.6282 19.296C68.8842 18.4 69.2042 17.448 69.5882 16.44C69.9882 15.416 70.4202 14.416 70.8842 13.44C71.3642 12.448 71.8362 11.56 72.3002 10.776C72.6682 10.152 73.0602 9.688 73.4762 9.384C73.9082 9.064 74.2842 8.904 74.6042 8.904C74.8602 8.904 75.0602 9 75.2042 9.192C75.3642 9.368 75.4442 9.64 75.4442 10.008C75.4442 10.264 75.3962 10.568 75.3002 10.92C75.2202 11.272 75.0762 11.672 74.8682 12.12C74.3082 13.368 73.6362 14.616 72.8522 15.864C72.0842 17.112 71.1082 18.28 69.9242 19.368C69.7322 19.816 69.5722 20.296 69.4442 20.808C69.3162 21.32 69.2522 21.736 69.2522 22.056C69.2522 23.048 69.5882 23.544 70.2602 23.544C70.7722 23.544 71.3402 23.176 71.9642 22.44C72.5882 21.688 73.1802 20.664 73.7402 19.368C73.8042 19.368 73.8682 19.384 73.9322 19.416C73.9962 19.432 74.0282 19.488 74.0282 19.584C73.8522 20.016 73.6282 20.496 73.3562 21.024C73.1002 21.536 72.7962 22.024 72.4442 22.488C72.1082 22.952 71.7162 23.336 71.2682 23.64C70.8202 23.928 70.3162 24.072 69.7562 24.072ZM70.1162 18.6C70.6922 18.008 71.2522 17.328 71.7962 16.56C72.3402 15.776 72.8442 14.968 73.3082 14.136C73.7882 13.288 74.1882 12.488 74.5082 11.736C74.6202 11.496 74.7082 11.232 74.7722 10.944C74.8522 10.656 74.8922 10.416 74.8922 10.224C74.8922 10 74.8362 9.888 74.7242 9.888C74.6602 9.888 74.5642 9.952 74.4362 10.08C74.3082 10.192 74.1402 10.392 73.9322 10.68C73.6282 11.08 73.2922 11.624 72.9242 12.312C72.5722 13 72.2122 13.736 71.8442 14.52C71.4762 15.304 71.1402 16.064 70.8362 16.8C70.5322 17.52 70.2922 18.12 70.1162 18.6ZM79.1856 24.072C78.8176 24.072 78.4896 23.968 78.2016 23.76C77.9296 23.552 77.7936 23.128 77.7936 22.488C77.7936 22.216 77.8096 21.96 77.8416 21.72C77.8896 21.48 77.9456 21.224 78.0096 20.952C77.8656 21.192 77.6656 21.488 77.4096 21.84C77.1536 22.192 76.8656 22.536 76.5456 22.872C76.2416 23.208 75.9216 23.488 75.5856 23.712C75.2656 23.936 74.9616 24.048 74.6736 24.048C74.2576 24.048 73.9216 23.864 73.6656 23.496C73.4096 23.112 73.2816 22.616 73.2816 22.008C73.2816 21.352 73.4336 20.648 73.7376 19.896C74.0416 19.144 74.4576 18.424 74.9856 17.736C75.5136 17.048 76.1216 16.488 76.8096 16.056C77.4976 15.624 78.2176 15.408 78.9696 15.408C79.3376 15.408 79.6896 15.472 80.0256 15.6C80.3616 15.712 80.6576 15.904 80.9136 16.176C81.0256 16.288 81.0816 16.416 81.0816 16.56C81.0816 16.656 81.0416 16.736 80.9616 16.8C80.8816 16.864 80.7776 16.88 80.6496 16.848C80.4736 16.288 80.0976 16.008 79.5216 16.008C79.2496 16.008 78.9376 16.096 78.5856 16.272C78.1536 16.496 77.6896 16.856 77.1936 17.352C76.7136 17.832 76.2576 18.384 75.8256 19.008C75.4096 19.616 75.0656 20.232 74.7936 20.856C74.5216 21.48 74.3856 22.048 74.3856 22.56C74.3856 23.088 74.5856 23.352 74.9856 23.352C75.3376 23.352 75.6976 23.184 76.0656 22.848C76.4496 22.512 76.8096 22.096 77.1456 21.6C77.4976 21.088 77.8176 20.584 78.1056 20.088C78.3936 19.592 78.6176 19.192 78.7776 18.888C79.0176 18.456 79.2416 18.096 79.4496 17.808C79.6576 17.52 79.9536 17.376 80.3376 17.376C80.5136 17.376 80.6896 17.4 80.8656 17.448C81.0416 17.496 81.2256 17.504 81.4176 17.472C80.9376 17.952 80.5136 18.52 80.1456 19.176C79.7936 19.832 79.5216 20.48 79.3296 21.12C79.1376 21.744 79.0416 22.272 79.0416 22.704C79.0416 23.184 79.2016 23.424 79.5216 23.424C79.7776 23.424 80.0496 23.28 80.3376 22.992C80.6416 22.704 80.9296 22.344 81.2016 21.912C81.4896 21.464 81.7536 21.016 81.9936 20.568C82.2336 20.104 82.4256 19.704 82.5696 19.368C82.6496 19.368 82.7136 19.376 82.7616 19.392C82.8256 19.408 82.8576 19.472 82.8576 19.584C82.8416 19.648 82.8096 19.72 82.7616 19.8C82.7296 19.864 82.6736 19.984 82.5936 20.16C82.4656 20.416 82.2896 20.76 82.0656 21.192C81.8416 21.624 81.5776 22.064 81.2736 22.512C80.9696 22.944 80.6416 23.312 80.2896 23.616C79.9376 23.92 79.5696 24.072 79.1856 24.072ZM92.3927 33.168C90.8727 33.168 89.4967 32.912 88.2647 32.4C87.0487 31.888 86.0887 31.144 85.3847 30.168C84.6647 29.192 84.3047 28.016 84.3047 26.64C84.3047 25.36 84.5527 24.312 85.0487 23.496C85.5447 22.664 86.0887 22.04 86.6807 21.624C87.0167 21.384 87.3287 21.216 87.6167 21.12C87.9047 21.008 88.0967 20.952 88.1927 20.952C88.2887 20.952 88.3367 20.992 88.3367 21.072C88.3367 21.152 88.2967 21.216 88.2167 21.264C87.3847 21.76 86.7447 22.464 86.2967 23.376C85.8647 24.288 85.6487 25.288 85.6487 26.376C85.6487 27.624 85.9367 28.704 86.5127 29.616C87.0887 30.544 87.8887 31.256 88.9127 31.752C89.9367 32.248 91.1207 32.496 92.4647 32.496C94.7367 32.496 96.9047 31.6 98.9687 29.808C101.033 28.016 103.025 25.52 104.945 22.32C105.665 21.088 106.345 19.816 106.985 18.504C107.625 17.192 108.233 15.896 108.809 14.616C109.385 13.368 109.929 12.248 110.441 11.256C110.969 10.248 111.425 9.4 111.809 8.712C112.209 8.024 112.497 7.544 112.673 7.272C108.625 7.816 105.489 8.68 103.265 9.864C101.057 11.048 99.9527 12.568 99.9527 14.424C99.9527 15.384 100.201 16.104 100.697 16.584C101.193 17.048 101.761 17.28 102.401 17.28C103.025 17.28 103.649 17.08 104.273 16.68C104.913 16.28 105.441 15.728 105.857 15.024C106.289 14.304 106.505 13.472 106.505 12.528C106.505 12.064 106.361 11.688 106.073 11.4C106.073 11.24 106.153 11.16 106.313 11.16C106.505 11.16 106.673 11.304 106.817 11.592C106.977 11.88 107.057 12.24 107.057 12.672C107.057 13.744 106.801 14.672 106.289 15.456C105.793 16.224 105.153 16.816 104.369 17.232C103.601 17.648 102.809 17.856 101.993 17.856C101.369 17.856 100.777 17.72 100.217 17.448C99.6567 17.176 99.1927 16.76 98.8247 16.2C98.4727 15.64 98.2967 14.944 98.2967 14.112C98.2967 13.024 98.6567 12.08 99.3767 11.28C100.113 10.464 101.137 9.768 102.449 9.192C103.777 8.616 105.337 8.12 107.129 7.704C108.937 7.288 110.921 6.928 113.081 6.624C113.529 6 113.937 5.512 114.305 5.16C114.689 4.808 115.105 4.632 115.553 4.632C115.809 4.632 116.009 4.696 116.153 4.824C116.313 4.952 116.393 5.144 116.393 5.4C116.393 5.768 116.241 6.072 115.937 6.312C115.633 6.536 115.249 6.72 114.785 6.864C114.321 6.992 113.857 7.096 113.393 7.176C112.801 8.2 112.281 9.256 111.833 10.344C111.401 11.416 110.993 12.52 110.609 13.656C110.241 14.776 109.841 15.928 109.409 17.112C108.993 18.28 108.497 19.48 107.921 20.712C106.721 23.256 105.337 25.456 103.769 27.312C102.201 29.184 100.465 30.624 98.5607 31.632C96.6567 32.656 94.6007 33.168 92.3927 33.168ZM113.825 6.576C114.481 6.464 114.921 6.328 115.145 6.168C115.369 5.992 115.481 5.832 115.481 5.688C115.481 5.496 115.385 5.4 115.193 5.4C115.017 5.4 114.801 5.536 114.545 5.808C114.305 6.064 114.065 6.32 113.825 6.576ZM116.257 24.072C115.889 24.072 115.561 23.968 115.273 23.76C115.001 23.552 114.865 23.128 114.865 22.488C114.865 22.216 114.881 21.96 114.913 21.72C114.961 21.48 115.017 21.224 115.081 20.952C114.937 21.192 114.737 21.488 114.481 21.84C114.225 22.192 113.937 22.536 113.617 22.872C113.313 23.208 112.993 23.488 112.657 23.712C112.337 23.936 112.033 24.048 111.745 24.048C111.329 24.048 110.993 23.864 110.737 23.496C110.481 23.112 110.353 22.616 110.353 22.008C110.353 21.352 110.505 20.648 110.809 19.896C111.113 19.144 111.529 18.424 112.057 17.736C112.585 17.048 113.193 16.488 113.881 16.056C114.569 15.624 115.289 15.408 116.041 15.408C116.409 15.408 116.761 15.472 117.097 15.6C117.433 15.712 117.729 15.904 117.985 16.176C118.097 16.288 118.153 16.416 118.153 16.56C118.153 16.656 118.113 16.736 118.033 16.8C117.953 16.864 117.849 16.88 117.721 16.848C117.545 16.288 117.169 16.008 116.593 16.008C116.321 16.008 116.009 16.096 115.657 16.272C115.225 16.496 114.761 16.856 114.265 17.352C113.785 17.832 113.329 18.384 112.897 19.008C112.481 19.616 112.137 20.232 111.865 20.856C111.593 21.48 111.457 22.048 111.457 22.56C111.457 23.088 111.657 23.352 112.057 23.352C112.409 23.352 112.769 23.184 113.137 22.848C113.521 22.512 113.881 22.096 114.217 21.6C114.569 21.088 114.889 20.584 115.177 20.088C115.465 19.592 115.689 19.192 115.849 18.888C116.089 18.456 116.313 18.096 116.521 17.808C116.729 17.52 117.025 17.376 117.409 17.376C117.585 17.376 117.761 17.4 117.937 17.448C118.113 17.496 118.297 17.504 118.489 17.472C118.009 17.952 117.585 18.52 117.217 19.176C116.865 19.832 116.593 20.48 116.401 21.12C116.209 21.744 116.113 22.272 116.113 22.704C116.113 23.184 116.273 23.424 116.593 23.424C116.849 23.424 117.121 23.28 117.409 22.992C117.713 22.704 118.001 22.344 118.273 21.912C118.561 21.464 118.825 21.016 119.065 20.568C119.305 20.104 119.497 19.704 119.641 19.368C119.721 19.368 119.785 19.376 119.833 19.392C119.897 19.408 119.929 19.472 119.929 19.584C119.913 19.648 119.881 19.72 119.833 19.8C119.801 19.864 119.745 19.984 119.665 20.16C119.537 20.416 119.361 20.76 119.137 21.192C118.913 21.624 118.649 22.064 118.345 22.512C118.041 22.944 117.713 23.312 117.361 23.616C117.009 23.92 116.641 24.072 116.257 24.072ZM117.587 24.192C118.163 23.024 118.715 21.872 119.243 20.736C119.771 19.584 120.315 18.488 120.875 17.448C121.195 16.872 121.467 16.472 121.691 16.248C121.915 16.008 122.211 15.888 122.579 15.888C122.707 15.888 122.843 15.912 122.987 15.96C123.131 15.992 123.275 16.008 123.419 16.008C123.515 16.008 123.587 16 123.635 15.984C123.411 16.112 123.115 16.432 122.747 16.944C122.395 17.44 122.035 18.016 121.667 18.672C121.299 19.328 120.971 19.944 120.683 20.52C120.987 20.152 121.307 19.784 121.643 19.416C121.979 19.048 122.347 18.696 122.747 18.36C123.131 18.024 123.587 17.68 124.115 17.328C124.659 16.96 125.187 16.656 125.699 16.416C126.211 16.176 126.619 16.056 126.923 16.056C127.035 16.056 127.115 16.064 127.163 16.08C127.163 16.08 127.075 16.24 126.899 16.56C126.723 16.864 126.499 17.272 126.227 17.784C125.971 18.28 125.707 18.816 125.435 19.392C125.163 19.952 124.915 20.496 124.691 21.024C124.483 21.536 124.347 21.968 124.283 22.32C124.235 22.528 124.211 22.72 124.211 22.896C124.211 23.152 124.259 23.32 124.355 23.4C124.451 23.48 124.555 23.52 124.667 23.52C124.971 23.52 125.283 23.384 125.603 23.112C125.923 22.84 126.227 22.496 126.515 22.08C126.819 21.648 127.099 21.192 127.355 20.712C127.611 20.232 127.827 19.784 128.003 19.368C128.195 19.368 128.291 19.44 128.291 19.584C128.115 20.016 127.891 20.496 127.619 21.024C127.363 21.536 127.067 22.024 126.731 22.488C126.411 22.952 126.051 23.336 125.651 23.64C125.251 23.944 124.819 24.096 124.355 24.096C124.035 24.096 123.699 23.984 123.347 23.76C123.011 23.536 122.843 23.12 122.843 22.512C122.843 22.336 122.859 22.152 122.891 21.96C122.923 21.752 122.979 21.528 123.059 21.288C123.187 20.968 123.339 20.624 123.515 20.256C123.691 19.888 123.979 19.384 124.379 18.744C124.491 18.568 124.555 18.432 124.571 18.336C124.603 18.24 124.619 18.16 124.619 18.096C124.619 17.904 124.531 17.808 124.355 17.808C124.211 17.808 123.995 17.888 123.707 18.048C123.435 18.208 123.091 18.488 122.675 18.888C122.275 19.272 121.795 19.816 121.235 20.52C120.691 21.224 120.059 22.264 119.339 23.64C119.227 23.848 119.099 23.96 118.955 23.976C118.827 23.992 118.643 24.008 118.403 24.024C118.243 24.04 118.091 24.048 117.947 24.048C117.803 24.064 117.683 24.112 117.587 24.192ZM133.448 24.072C133.08 24.072 132.752 23.968 132.464 23.76C132.192 23.552 132.056 23.128 132.056 22.488C132.056 22.216 132.072 21.96 132.104 21.72C132.152 21.48 132.208 21.224 132.272 20.952C132.128 21.192 131.928 21.488 131.672 21.84C131.416 22.192 131.128 22.536 130.808 22.872C130.504 23.208 130.184 23.488 129.848 23.712C129.528 23.936 129.224 24.048 128.936 24.048C128.52 24.048 128.184 23.864 127.928 23.496C127.672 23.112 127.544 22.616 127.544 22.008C127.544 21.352 127.696 20.648 128 19.896C128.304 19.144 128.72 18.424 129.248 17.736C129.776 17.048 130.384 16.488 131.072 16.056C131.76 15.624 132.48 15.408 133.232 15.408C133.6 15.408 133.952 15.472 134.288 15.6C134.624 15.712 134.92 15.904 135.176 16.176C135.288 16.288 135.344 16.416 135.344 16.56C135.344 16.656 135.304 16.736 135.224 16.8C135.144 16.864 135.04 16.88 134.912 16.848C134.736 16.288 134.36 16.008 133.784 16.008C133.512 16.008 133.2 16.096 132.848 16.272C132.416 16.496 131.952 16.856 131.456 17.352C130.976 17.832 130.52 18.384 130.088 19.008C129.672 19.616 129.328 20.232 129.056 20.856C128.784 21.48 128.648 22.048 128.648 22.56C128.648 23.088 128.848 23.352 129.248 23.352C129.6 23.352 129.96 23.184 130.328 22.848C130.712 22.512 131.072 22.096 131.408 21.6C131.76 21.088 132.08 20.584 132.368 20.088C132.656 19.592 132.88 19.192 133.04 18.888C133.28 18.456 133.504 18.096 133.712 17.808C133.92 17.52 134.216 17.376 134.6 17.376C134.776 17.376 134.952 17.4 135.128 17.448C135.304 17.496 135.488 17.504 135.68 17.472C135.2 17.952 134.776 18.52 134.408 19.176C134.056 19.832 133.784 20.48 133.592 21.12C133.4 21.744 133.304 22.272 133.304 22.704C133.304 23.184 133.464 23.424 133.784 23.424C134.04 23.424 134.312 23.28 134.6 22.992C134.904 22.704 135.192 22.344 135.464 21.912C135.752 21.464 136.016 21.016 136.256 20.568C136.496 20.104 136.688 19.704 136.832 19.368C136.912 19.368 136.976 19.376 137.024 19.392C137.088 19.408 137.12 19.472 137.12 19.584C137.104 19.648 137.072 19.72 137.024 19.8C136.992 19.864 136.936 19.984 136.856 20.16C136.728 20.416 136.552 20.76 136.328 21.192C136.104 21.624 135.84 22.064 135.536 22.512C135.232 22.944 134.904 23.312 134.552 23.616C134.2 23.92 133.832 24.072 133.448 24.072ZM134.754 24.192C135.426 22.816 136.122 21.376 136.842 19.872C137.578 18.352 138.33 16.824 139.098 15.288C139.866 13.752 140.626 12.288 141.378 10.896C141.65 10.416 141.898 10.04 142.122 9.768C142.362 9.496 142.674 9.36 143.058 9.36C143.202 9.36 143.37 9.384 143.562 9.432C143.754 9.48 143.938 9.488 144.114 9.456C143.906 9.68 143.618 10.072 143.25 10.632C142.898 11.192 142.498 11.864 142.05 12.648C141.618 13.432 141.154 14.28 140.658 15.192C140.178 16.088 139.698 17 139.218 17.928C138.754 18.84 138.322 19.696 137.922 20.496C138.242 20.08 138.57 19.688 138.906 19.32C139.242 18.952 139.57 18.632 139.89 18.36C140.242 18.04 140.682 17.704 141.21 17.352C141.754 17 142.29 16.696 142.818 16.44C143.362 16.184 143.794 16.056 144.114 16.056C144.226 16.056 144.306 16.064 144.354 16.08C144.354 16.08 144.266 16.24 144.09 16.56C143.914 16.88 143.69 17.288 143.418 17.784C143.162 18.28 142.89 18.816 142.602 19.392C142.33 19.968 142.09 20.52 141.882 21.048C141.674 21.56 141.538 21.984 141.474 22.32C141.426 22.576 141.402 22.792 141.402 22.968C141.402 23.224 141.45 23.4 141.546 23.496C141.642 23.576 141.746 23.616 141.858 23.616C142.13 23.616 142.418 23.48 142.722 23.208C143.042 22.92 143.354 22.56 143.658 22.128C143.962 21.696 144.242 21.24 144.498 20.76C144.77 20.264 144.986 19.8 145.146 19.368C145.338 19.368 145.434 19.44 145.434 19.584C145.258 20.016 145.034 20.496 144.762 21.024C144.506 21.536 144.21 22.024 143.874 22.488C143.538 22.952 143.17 23.336 142.77 23.64C142.37 23.944 141.946 24.096 141.498 24.096C141.178 24.096 140.85 23.984 140.514 23.76C140.178 23.536 140.01 23.128 140.01 22.536C140.01 22.36 140.026 22.176 140.058 21.984C140.09 21.776 140.146 21.544 140.226 21.288C140.322 20.968 140.482 20.616 140.706 20.232C140.93 19.832 141.218 19.336 141.57 18.744C141.73 18.472 141.81 18.256 141.81 18.096C141.81 17.904 141.714 17.808 141.522 17.808C141.362 17.808 141.146 17.888 140.874 18.048C140.602 18.208 140.258 18.488 139.842 18.888C139.442 19.272 138.946 19.832 138.354 20.568C137.762 21.304 137.13 22.336 136.458 23.664C136.346 23.872 136.218 23.984 136.074 24C135.946 24 135.77 24.008 135.546 24.024C135.402 24.04 135.258 24.048 135.114 24.048C134.97 24.064 134.85 24.112 134.754 24.192Z" fill="#0A0A0A"/>
<path d="M39 31.2C38.6686 31.2 38.4 31.4686 38.4 31.8C38.4 32.1314 38.6686 32.4 39 32.4V31.2ZM39 32.4C40.084 32.4 40.6391 31.7379 41.0265 31.2951C41.4266 30.8379 41.659 30.6 42.15 30.6V29.4C41.066 29.4 40.5109 30.0621 40.1235 30.5049C39.7234 30.9621 39.491 31.2 39 31.2V32.4Z" fill="#0A0A0A"/>
<path d="M42.15 30.6C42.641 30.6 42.8734 30.8379 43.2735 31.2951C43.6609 31.7379 44.216 32.4 45.3 32.4V31.2C44.8089 31.2 44.5766 30.9621 44.1765 30.5049C43.7891 30.0621 43.2339 29.4 42.15 29.4V30.6Z" fill="#0A0A0A"/>
<path d="M45.3 32.4C46.3839 32.4 46.9391 31.7379 47.3265 31.2951C47.7266 30.8379 47.9589 30.6 48.45 30.6V29.4C47.366 29.4 46.8109 30.0621 46.4235 30.5049C46.0234 30.9621 45.791 31.2 45.3 31.2V32.4Z" fill="#0A0A0A"/>
<path d="M48.45 30.6C48.941 30.6 49.1734 30.8379 49.5734 31.2951C49.9609 31.7379 50.516 32.4 51.6 32.4V31.2C51.1089 31.2 50.8766 30.9621 50.4765 30.5049C50.0891 30.0621 49.5339 29.4 48.45 29.4V30.6Z" fill="#0A0A0A"/>
<path d="M51.6 32.4C52.6839 32.4 53.2391 31.7379 53.6265 31.2951C54.0266 30.8379 54.2589 30.6 54.75 30.6V29.4C53.666 29.4 53.1109 30.0621 52.7234 30.5049C52.3234 30.9621 52.091 31.2 51.6 31.2V32.4Z" fill="#0A0A0A"/>
<path d="M54.75 30.6C55.241 30.6 55.4734 30.8379 55.8734 31.2951C56.2609 31.7379 56.816 32.4 57.9 32.4V31.2C57.4089 31.2 57.1766 30.9621 56.7765 30.5049C56.3891 30.0621 55.8339 29.4 54.75 29.4V30.6Z" fill="#0A0A0A"/>
<path d="M57.9 32.4C58.9839 32.4 59.5391 31.7379 59.9265 31.2951C60.3266 30.8379 60.5589 30.6 61.05 30.6V29.4C59.966 29.4 59.4109 30.0621 59.0234 30.5049C58.6234 30.9621 58.391 31.2 57.9 31.2V32.4Z" fill="#0A0A0A"/>
<path d="M61.05 30.6C61.541 30.6 61.7734 30.8379 62.1734 31.2951C62.5609 31.7379 63.116 32.4 64.2 32.4V31.2C63.7089 31.2 63.4766 30.9621 63.0765 30.5049C62.6891 30.0621 62.1339 29.4 61.05 29.4V30.6Z" fill="#0A0A0A"/>
<path d="M64.2 32.4C65.2839 32.4 65.8391 31.7379 66.2265 31.2951C66.6266 30.8379 66.8589 30.6 67.35 30.6V29.4C66.266 29.4 65.7109 30.0621 65.3234 30.5049C64.9234 30.9621 64.691 31.2 64.2 31.2V32.4Z" fill="#0A0A0A"/>
<path d="M67.35 30.6C67.841 30.6 68.0734 30.8379 68.4734 31.2951C68.8609 31.7379 69.416 32.4 70.5 32.4V31.2C70.0089 31.2 69.7766 30.9621 69.3765 30.5049C68.9891 30.0621 68.4339 29.4 67.35 29.4V30.6Z" fill="#0A0A0A"/>
<path d="M70.5 32.4C71.5839 32.4 72.1391 31.7379 72.5265 31.2951C72.9266 30.8379 73.1589 30.6 73.65 30.6V29.4C72.566 29.4 72.0109 30.0621 71.6234 30.5049C71.2234 30.9621 70.991 31.2 70.5 31.2V32.4Z" fill="#0A0A0A"/>
<path d="M73.65 30.6C74.141 30.6 74.3734 30.8379 74.7734 31.2951C75.1609 31.7379 75.716 32.4 76.8 32.4V31.2C76.3089 31.2 76.0766 30.9621 75.6765 30.5049C75.2891 30.0621 74.7339 29.4 73.65 29.4V30.6Z" fill="#0A0A0A"/>
<path d="M76.8 32.4C77.8839 32.4 78.4391 31.7379 78.8265 31.2951C79.2266 30.8379 79.4589 30.6 79.95 30.6V29.4C78.866 29.4 78.3109 30.0621 77.9234 30.5049C77.5234 30.9621 77.291 31.2 76.8 31.2V32.4Z" fill="#0A0A0A"/>
<path d="M79.95 30.6C80.441 30.6 80.6734 30.8379 81.0734 31.2951C81.4608 31.7379 82.016 32.4 83.1 32.4V31.2C82.6089 31.2 82.3766 30.9621 81.9765 30.5049C81.5891 30.0621 81.0339 29.4 79.95 29.4V30.6Z" fill="#0A0A0A"/>
<path d="M83.1 32.4C84.1839 32.4 84.7391 31.7379 85.1265 31.2951C85.5266 30.8379 85.7589 30.6 86.25 30.6V29.4C85.166 29.4 84.6108 30.0621 84.2234 30.5049C83.8233 30.9621 83.591 31.2 83.1 31.2V32.4Z" fill="#0A0A0A"/>
<path d="M86.25 30.6C86.741 30.6 86.9733 30.8379 87.3734 31.2951C87.7608 31.7379 88.316 32.4 89.4 32.4V31.2C88.9089 31.2 88.6766 30.9621 88.2765 30.5049C87.8891 30.0621 87.3339 29.4 86.25 29.4V30.6Z" fill="#0A0A0A"/>
<path d="M89.4 32.4C90.4839 32.4 91.0391 31.7379 91.4265 31.2951C91.8266 30.8379 92.0589 30.6 92.55 30.6V29.4C91.466 29.4 90.9108 30.0621 90.5234 30.5049C90.1233 30.9621 89.891 31.2 89.4 31.2V32.4Z" fill="#0A0A0A"/>
<path d="M92.55 30.6C93.041 30.6 93.2733 30.8379 93.6734 31.2951C94.0608 31.7379 94.616 32.4 95.7 32.4V31.2C95.2089 31.2 94.9766 30.9621 94.5765 30.5049C94.1891 30.0621 93.6339 29.4 92.55 29.4V30.6Z" fill="#0A0A0A"/>
<path d="M95.7 32.4C96.7839 32.4 97.3391 31.7379 97.7265 31.2951C98.1266 30.8379 98.3589 30.6 98.85 30.6V29.4C97.766 29.4 97.2108 30.0621 96.8234 30.5049C96.4233 30.9621 96.191 31.2 95.7 31.2V32.4Z" fill="#0A0A0A"/>
<path d="M98.85 30.6C99.341 30.6 99.5733 30.8379 99.9734 31.2951C100.361 31.7379 100.916 32.4 102 32.4V31.2C101.509 31.2 101.277 30.9621 100.877 30.5049C100.489 30.0621 99.9339 29.4 98.85 29.4V30.6Z" fill="#0A0A0A"/>
<path d="M102 32.4C103.084 32.4 103.639 31.7379 104.027 31.2951C104.427 30.8379 104.659 30.6 105.15 30.6V29.4C104.066 29.4 103.511 30.0621 103.123 30.5049C102.723 30.9621 102.491 31.2 102 31.2V32.4Z" fill="#0A0A0A"/>
<path d="M105.15 30.6C105.641 30.6 105.873 30.8379 106.273 31.2951C106.661 31.7379 107.216 32.4 108.3 32.4V31.2C107.809 31.2 107.577 30.9621 107.177 30.5049C106.789 30.0621 106.234 29.4 105.15 29.4V30.6Z" fill="#0A0A0A"/>
<path d="M108.3 32.4C109.384 32.4 109.939 31.7379 110.327 31.2951C110.727 30.8379 110.959 30.6 111.45 30.6V29.4C110.366 29.4 109.811 30.0621 109.423 30.5049C109.023 30.9621 108.791 31.2 108.3 31.2V32.4Z" fill="#0A0A0A"/>
<path d="M111.45 30.6C111.941 30.6 112.173 30.8379 112.573 31.2951C112.961 31.7379 113.516 32.4 114.6 32.4V31.2C114.109 31.2 113.877 30.9621 113.477 30.5049C113.089 30.0621 112.534 29.4 111.45 29.4V30.6Z" fill="#0A0A0A"/>
<path d="M114.6 32.4C115.684 32.4 116.239 31.7379 116.627 31.2951C117.027 30.8379 117.259 30.6 117.75 30.6V29.4C116.666 29.4 116.111 30.0621 115.723 30.5049C115.323 30.9621 115.091 31.2 114.6 31.2V32.4Z" fill="#0A0A0A"/>
<path d="M117.75 30.6C118.241 30.6 118.473 30.8379 118.873 31.2951C119.261 31.7379 119.816 32.4 120.9 32.4V31.2C120.409 31.2 120.177 30.9621 119.777 30.5049C119.389 30.0621 118.834 29.4 117.75 29.4V30.6Z" fill="#0A0A0A"/>
<path d="M120.9 32.4C121.984 32.4 122.539 31.7379 122.927 31.2951C123.327 30.8379 123.559 30.6 124.05 30.6V29.4C122.966 29.4 122.411 30.0621 122.023 30.5049C121.623 30.9621 121.391 31.2 120.9 31.2V32.4Z" fill="#0A0A0A"/>
<path d="M124.05 30.6C124.541 30.6 124.773 30.8379 125.173 31.2951C125.561 31.7379 126.116 32.4 127.2 32.4V31.2C126.709 31.2 126.477 30.9621 126.077 30.5049C125.689 30.0621 125.134 29.4 124.05 29.4V30.6Z" fill="#0A0A0A"/>
<path d="M127.2 32.4C128.284 32.4 128.839 31.7379 129.227 31.2951C129.627 30.8379 129.859 30.6 130.35 30.6V29.4C129.266 29.4 128.711 30.0621 128.323 30.5049C127.923 30.9621 127.691 31.2 127.2 31.2V32.4Z" fill="#0A0A0A"/>
<path d="M130.35 30.6C130.841 30.6 131.073 30.8379 131.473 31.2951C131.861 31.7379 132.416 32.4 133.5 32.4V31.2C133.009 31.2 132.777 30.9621 132.377 30.5049C131.989 30.0621 131.434 29.4 130.35 29.4V30.6Z" fill="#0A0A0A"/>
<path d="M133.5 32.4C134.584 32.4 135.139 31.7379 135.527 31.2951C135.927 30.8379 136.159 30.6 136.65 30.6V29.4C135.566 29.4 135.011 30.0621 134.623 30.5049C134.223 30.9621 133.991 31.2 133.5 31.2V32.4Z" fill="#0A0A0A"/>
<path d="M136.65 30.6C137.141 30.6 137.373 30.8379 137.773 31.2951C138.161 31.7379 138.716 32.4 139.8 32.4V31.2C139.309 31.2 139.077 30.9621 138.677 30.5049C138.289 30.0621 137.734 29.4 136.65 29.4V30.6Z" fill="#0A0A0A"/>
<path d="M142.95 30.6C143.281 30.6 143.55 30.3314 143.55 30C143.55 29.6686 143.281 29.4 142.95 29.4V30.6ZM139.8 32.4C140.884 32.4 141.439 31.7379 141.827 31.2951C142.227 30.8379 142.459 30.6 142.95 30.6V29.4C141.866 29.4 141.311 30.0621 140.923 30.5049C140.523 30.9621 140.291 31.2 139.8 31.2V32.4Z" fill="#0A0A0A"/>
</svg>

